<svg width="51" height="51" viewBox="0 0 51 51" fill="none" xmlns="http://www.w3.org/2000/svg">
<g clip-path="url(#clip0)">
<path d="M44.7017 9.47132V14.0741C44.371 13.5009 44.0149 12.9409 43.6322 12.3965C42.2928 10.4911 40.6703 8.81412 38.8095 7.412C36.9266 5.99317 34.8444 4.88984 32.6207 4.1327C30.3209 3.34965 27.9128 2.95264 25.4634 2.95264C22.9057 2.95264 20.3969 3.38473 18.0072 4.23696C15.6976 5.06052 13.5512 6.2566 11.6273 7.79202C9.72253 9.31226 8.08976 11.1217 6.77452 13.1702C5.43468 15.257 4.46191 17.5345 3.88325 19.9392C3.51145 21.4844 4.46262 23.0384 6.00785 23.4102C6.23412 23.4646 6.46056 23.4907 6.68342 23.4907C7.98277 23.4907 9.16152 22.6046 9.47889 21.2857C10.3268 17.7616 12.3648 14.5671 15.2175 12.2904C16.6427 11.1529 18.2316 10.2673 19.9402 9.65802C21.7078 9.02767 23.5661 8.70805 25.4634 8.70805C29.0631 8.70805 32.4804 9.84937 35.346 12.0086C37.285 13.4697 38.8837 15.361 40.0127 17.4951H36.8245C35.2352 17.4951 33.9468 18.7834 33.9468 20.3727C33.9468 21.962 35.2352 23.2504 36.8245 23.2504H47.5794C49.1687 23.2504 50.4571 21.962 50.4571 20.3727V9.47132C50.4571 7.88202 49.1687 6.59364 47.5794 6.59364C45.9901 6.59364 44.7017 7.88202 44.7017 9.47132Z" fill="black"/>
<path d="M3.33471 43.7026C4.92401 43.7026 6.21239 42.4142 6.21239 40.8249V36.2027C7.92667 39.1866 10.3136 41.7364 13.2095 43.657C16.8406 46.0652 21.0706 47.3396 25.4435 47.3434C25.4459 47.3434 25.4483 47.3436 25.4506 47.3436C25.4526 47.3436 25.4545 47.3435 25.4565 47.3435C25.4587 47.3435 25.461 47.3436 25.4633 47.3436C25.4663 47.3436 25.4692 47.3434 25.4724 47.3434C28.0225 47.3409 30.5237 46.909 32.9068 46.0592C35.2163 45.2356 37.3628 44.0396 39.2866 42.5042C41.1915 40.984 42.8242 39.1744 44.1395 37.126C45.4793 35.0392 46.4521 32.7617 47.0308 30.357C47.4026 28.8119 46.4514 27.2579 44.9061 26.8861C43.3608 26.5143 41.8069 27.4654 41.4352 29.0106C40.5871 32.5347 38.5491 35.7293 35.6965 38.0059C34.2714 39.1433 32.6824 40.0291 30.9738 40.6382C29.2079 41.2679 27.3517 41.5874 25.4565 41.5881C22.2141 41.5868 19.0792 40.6437 16.3906 38.8605C14.072 37.3228 12.194 35.2425 10.9089 32.8012H14.0896C15.6789 32.8012 16.9672 31.5128 16.9672 29.9235C16.9672 28.3342 15.6789 27.0458 14.0896 27.0458H3.33471C1.74541 27.0458 0.457031 28.3342 0.457031 29.9235V40.8249C0.457031 42.4142 1.74541 43.7026 3.33471 43.7026Z" fill="black"/>
</g>
<defs>
<clipPath id="clip0">
<rect width="50" height="50" fill="white" transform="translate(0.457031 0.148071)"/>
</clipPath>
</defs>
</svg>
