<svg width="51" height="51" viewBox="0 0 51 51" fill="none" xmlns="http://www.w3.org/2000/svg">
<g clip-path="url(#clip0)">
<path d="M43.2764 21.8335C43.4619 20.7715 43.5641 19.6789 43.5641 18.562C43.5641 8.40901 35.5426 0.148071 25.6829 0.148071C15.8228 0.148071 7.80086 8.40901 7.80086 18.562C7.80086 19.6789 7.90359 20.7706 8.08945 21.8335C6.53685 22.8251 5.50439 24.5587 5.50439 26.5387V44.5653C5.50439 47.6488 8.00413 50.1481 11.0867 50.1481H40.2787C43.3604 50.1481 45.8597 47.6488 45.8597 44.5653H45.8615V26.5387C45.8615 24.5592 44.8299 22.8251 43.2764 21.8335ZM28.1461 37.5736V41.491C28.1461 42.8526 27.0431 43.9555 25.6821 43.9555C24.321 43.9555 23.218 42.8526 23.218 41.491V37.5719C21.6376 36.7009 20.5655 35.0204 20.5655 33.0878C20.5655 30.262 22.8563 27.9708 25.6829 27.9708C28.5096 27.9708 30.8008 30.262 30.8008 33.0878C30.8008 35.0212 29.7279 36.7031 28.1461 37.5736ZM36.7605 20.9556H14.605C14.453 20.183 14.3721 19.3817 14.3721 18.562C14.3721 12.0317 19.446 6.7193 25.6829 6.7193C31.9194 6.7193 36.9929 12.0313 36.9929 18.562C36.9929 19.3817 36.9128 20.183 36.7605 20.9556Z" fill="black"/>
</g>
<defs>
<clipPath id="clip0">
<rect width="50" height="50" fill="white" transform="translate(0.683105 0.148071)"/>
</clipPath>
</defs>
</svg>
