<svg width="51" height="51" viewBox="0 0 51 51" fill="none" xmlns="http://www.w3.org/2000/svg">
<g clip-path="url(#clip0)">
<path d="M18.6555 24.8493C18.6555 25.3093 18.2865 25.6772 17.8252 25.6772H14.7091C14.2478 25.6772 13.8788 25.3093 13.8788 24.8493V21.7422C13.8788 21.2823 14.2478 20.9143 14.7091 20.9143H17.8252C18.2865 20.9143 18.6555 21.2823 18.6555 21.7422V24.8493ZM25.1646 21.7524C25.1646 21.2925 24.7956 20.9246 24.3343 20.9246H21.2181C20.7569 20.9246 20.3879 21.2925 20.3879 21.7524V24.8596C20.3879 25.3195 20.7569 25.6874 21.2181 25.6874H24.3343C24.7956 25.6874 25.1646 25.3195 25.1646 24.8596V21.7524ZM31.6736 21.7524C31.6736 21.2925 31.3046 20.9246 30.8433 20.9246H27.7272C27.2659 20.9246 26.8969 21.2925 26.8969 21.7524V24.8596C26.8969 25.3195 27.2659 25.6874 27.7272 25.6874H30.8433C31.3046 25.6874 31.6736 25.3195 31.6736 24.8596V21.7524ZM18.6555 28.0689C18.6555 27.6089 18.2865 27.241 17.8252 27.241H14.7091C14.2478 27.241 13.8788 27.6089 13.8788 28.0689V31.176C13.8788 31.6359 14.2478 32.0039 14.7091 32.0039H17.8252C18.2865 32.0039 18.6555 31.6359 18.6555 31.176V28.0689ZM25.1646 28.0689C25.1646 27.6089 24.7956 27.241 24.3343 27.241H21.2181C20.7569 27.241 20.3879 27.6089 20.3879 28.0689V31.176C20.3879 31.6359 20.7569 32.0039 21.2181 32.0039H24.3343C24.7956 32.0039 25.1646 31.6359 25.1646 31.176V28.0689ZM30.8433 27.241H27.7272C27.2659 27.241 26.8969 27.6089 26.8969 28.0689V31.176C26.8969 31.6359 27.2659 32.0039 27.7272 32.0039H30.8433C31.3046 32.0039 31.6736 31.6359 31.6736 31.176V28.0689C31.6736 27.6089 31.3046 27.241 30.8433 27.241ZM11.3059 33.5574H8.20004C7.73877 33.5574 7.36975 33.9254 7.36975 34.3853V37.4924C7.36975 37.9524 7.73877 38.3203 8.20004 38.3203H11.3162C11.7775 38.3203 12.1465 37.9524 12.1465 37.4924V34.3853C12.1465 33.9254 11.7672 33.5574 11.3059 33.5574ZM12.1465 28.0689C12.1465 27.6089 11.7775 27.241 11.3162 27.241H8.20004C7.73877 27.241 7.36975 27.6089 7.36975 28.0689V31.176C7.36975 31.6359 7.73877 32.0039 8.20004 32.0039H11.3162C11.7775 32.0039 12.1465 31.6359 12.1465 31.176V28.0689ZM24.3343 33.5574H21.2181C20.7569 33.5574 20.3879 33.9254 20.3879 34.3853V37.4924C20.3879 37.9524 20.7569 38.3203 21.2181 38.3203H24.3343C24.7956 38.3203 25.1646 37.9524 25.1646 37.4924V34.3853C25.1646 33.9254 24.7956 33.5574 24.3343 33.5574ZM17.8252 33.5574H14.7091C14.2478 33.5574 13.8788 33.9254 13.8788 34.3853V37.4924C13.8788 37.9524 14.2478 38.3203 14.7091 38.3203H17.8252C18.2865 38.3203 18.6555 37.9524 18.6555 37.4924V34.3853C18.6555 33.9254 18.2865 33.5574 17.8252 33.5574ZM37.3524 25.6874C37.8137 25.6874 38.1827 25.3195 38.1827 24.8596V21.7524C38.1827 21.2925 37.8137 20.9246 37.3524 20.9246H34.2363C33.775 20.9246 33.406 21.2925 33.406 21.7524V24.8596C33.406 25.3195 33.775 25.6874 34.2363 25.6874H37.3524ZM5.31965 45.066H28.9675C28.5882 43.8804 28.373 42.613 28.3627 41.3048H5.31965C4.70463 41.3048 4.2126 40.804 4.2126 40.2009V17.9912H41.2886V28.3244C42.6007 28.3346 43.8717 28.5288 45.0608 28.907V10.2132C45.0608 7.52513 42.8672 5.33789 40.1713 5.33789H34.6975V2.33298C34.6975 1.35179 33.898 0.554565 32.9139 0.554565H30.1361C29.152 0.554565 28.3525 1.35179 28.3525 2.33298V5.34811H17.1385V2.33298C17.1385 1.35179 16.3389 0.554565 15.3549 0.554565H12.577C11.5929 0.554565 10.7934 1.35179 10.7934 2.33298V5.34811H5.31965C2.62378 5.34811 0.430176 7.53535 0.430176 10.2234V40.2009C0.430176 42.8788 2.62378 45.066 5.31965 45.066ZM50.5755 41.1617C50.5755 46.3027 46.3933 50.4728 41.2373 50.4728C36.0813 50.4728 31.8991 46.3027 31.8991 41.1617C31.8991 36.0206 36.0813 31.8506 41.2373 31.8506C46.3933 31.8506 50.5755 36.0206 50.5755 41.1617ZM45.9526 38.7496C45.9526 38.4532 45.8398 38.167 45.6245 37.9626C45.1838 37.5231 44.4765 37.5231 44.0357 37.9626L39.9765 42.01L38.4185 40.4564C37.9777 40.017 37.2704 40.017 36.8296 40.4564C36.6144 40.6711 36.5016 40.947 36.5016 41.2434C36.5016 41.5398 36.6144 41.826 36.8296 42.0304L39.177 44.371C39.6178 44.8105 40.325 44.8105 40.7658 44.371L45.6143 39.5366C45.8398 39.3322 45.9526 39.046 45.9526 38.7496Z" fill="black"/>
</g>
<defs>
<clipPath id="clip0">
<rect width="50.1453" height="50" fill="white" transform="translate(0.430176 0.51355)"/>
</clipPath>
</defs>
</svg>
