<svg width="51" height="51" viewBox="0 0 51 51" fill="none" xmlns="http://www.w3.org/2000/svg">
<g clip-path="url(#clip0)">
<path d="M47.7663 5.11157H2.8675C1.45888 5.11157 0.316895 6.25356 0.316895 7.66218V42.6339C0.316895 44.0425 1.45888 45.1845 2.8675 45.1845H47.7663C49.1749 45.1845 50.3169 44.0425 50.3169 42.6339V7.66218C50.3169 6.25356 49.1749 5.11157 47.7663 5.11157ZM45.2157 40.0832H5.4181V10.2128H45.2157V40.0832Z" fill="black"/>
<path d="M11.2254 19.8478L17.6386 25.3084L11.5352 30.505C10.4626 31.4182 10.3335 33.0281 11.2468 34.1007C12.1601 35.1733 13.7698 35.3022 14.8425 34.3891L21.5732 28.6584L23.6633 30.4382C24.1399 30.8439 24.7284 31.0468 25.3169 31.0468C25.9054 31.0468 26.494 30.8439 26.9706 30.4382L29.0607 28.6584L35.7914 34.3891C36.863 35.3017 38.4733 35.1738 39.3871 34.1007C40.3004 33.0281 40.1711 31.4183 39.0987 30.505L32.9953 25.3084L39.4083 19.8478C40.481 18.9345 40.6098 17.3247 39.6967 16.2521C38.7833 15.1795 37.1737 15.0506 36.1011 15.9637L25.3169 25.146L14.5326 15.9637C13.46 15.0508 11.8504 15.1796 10.937 16.2521C10.0239 17.3247 10.1529 18.9343 11.2254 19.8478Z" fill="black"/>
</g>
<defs>
<clipPath id="clip0">
<rect width="50" height="50" fill="white" transform="translate(0.316895 0.148071)"/>
</clipPath>
</defs>
</svg>
