<svg width="51" height="51" viewBox="0 0 51 51" fill="none" xmlns="http://www.w3.org/2000/svg">
<path d="M41.8965 9.16705H35.8516C35.6758 7.80963 35.5488 6.80377 35.5488 6.80377C35.4219 5.80768 34.5723 5.05573 33.5566 5.05573H27.3555V3.88385C27.3555 2.78033 26.457 1.89166 25.3535 1.89166C24.25 1.89166 23.3516 2.78033 23.3516 3.88385V5.05573H17.1406C16.125 5.05573 15.2754 5.80768 15.1484 6.80377L14.8555 9.16705H8.80078C7.69727 9.16705 6.79883 10.0557 6.79883 11.1592V47.7413C6.79883 48.8448 7.69727 49.7335 8.80078 49.7335H41.8965C43 49.7335 43.8984 48.8448 43.8984 47.7413V11.1592C43.9082 10.0655 43.0098 9.16705 41.8965 9.16705ZM18.9082 9.04987H31.7891L32.4434 14.2452H18.2539L18.9082 9.04987ZM39.8945 45.7588H10.8125V13.1612H14.3574L14.0059 15.9932C13.9375 16.5596 14.0059 18.2296 15.998 18.2296H34.7188C34.7285 18.2296 34.7285 18.2296 34.7383 18.2296C35.8516 18.2296 36.7402 17.3409 36.7402 16.2374C36.7402 16.169 36.5742 14.8213 36.3594 13.1612H39.8945V45.7588Z" fill="black"/>
</svg>
