<svg width="60" height="60" viewBox="0 0 60 60" fill="none" xmlns="http://www.w3.org/2000/svg">
<path d="M40.6 55C39.9369 55 39.301 54.7366 38.8322 54.2678C38.3634 53.7989 38.1 53.163 38.1 52.5V46C38.1777 45.2523 38.0976 44.4967 37.8651 43.7818C37.6326 43.067 37.2527 42.4089 36.75 41.85C36.4387 41.5124 36.2265 41.0957 36.1364 40.6454C36.0464 40.1952 36.0822 39.7289 36.2397 39.2976C36.3972 38.8663 36.6705 38.4867 37.0295 38.2005C37.3885 37.9143 37.8194 37.7325 38.275 37.675C44.375 36.95 50 35 50 24.425C50.0019 22.4502 49.4191 20.519 48.325 18.875C47.3154 17.3616 46.9468 15.5097 47.3 13.725C47.5253 12.5608 47.5253 11.3642 47.3 10.2C45.428 10.8329 43.6654 11.7522 42.075 12.925C41.7743 13.1385 41.43 13.2829 41.067 13.3477C40.7039 13.4126 40.331 13.3963 39.975 13.3C35.4633 12.0251 30.6866 12.0251 26.175 13.3C25.8189 13.3963 25.446 13.4126 25.083 13.3477C24.7199 13.2829 24.3757 13.1385 24.075 12.925C22.4748 11.7386 20.6935 10.8184 18.8 10.2C18.5622 11.363 18.5622 12.562 18.8 13.725C19.1277 15.5321 18.7424 17.3959 17.725 18.925C16.6356 20.5806 16.0535 22.5182 16.05 24.5C16.05 34.225 20.75 36.825 27.8 37.725C28.2613 37.7822 28.6975 37.967 29.0596 38.2584C29.4218 38.5499 29.6955 38.9366 29.85 39.375C29.9953 39.8004 30.0233 40.2572 29.9309 40.6971C29.8385 41.1371 29.6292 41.544 29.325 41.875C28.8387 42.3948 28.4655 43.0097 28.2288 43.6809C27.9922 44.3522 27.8972 45.0652 27.95 45.775V52.5C27.95 53.163 27.6866 53.7989 27.2177 54.2678C26.7489 54.7366 26.113 55 25.45 55C24.7869 55 24.151 54.7366 23.6822 54.2678C23.2134 53.7989 22.95 53.163 22.95 52.5V51.075C20.4934 51.3575 18.005 51.0283 15.7064 50.1167C13.4078 49.2051 11.3702 47.7394 9.77497 45.85C8.95498 44.9411 7.97117 44.1948 6.87497 43.65C6.55652 43.5679 6.25735 43.4239 5.99454 43.2262C5.73174 43.0285 5.51044 42.781 5.3433 42.4978C5.17615 42.2146 5.06643 41.9012 5.02039 41.5756C4.97435 41.25 4.9929 40.9185 5.07497 40.6C5.15705 40.2815 5.30105 39.9824 5.49874 39.7196C5.69644 39.4568 5.94396 39.2355 6.22718 39.0683C6.5104 38.9012 6.82377 38.7915 7.14939 38.7454C7.47502 38.6994 7.80652 38.7179 8.12497 38.8C10.0481 39.5006 11.7665 40.6691 13.125 42.2C15.625 44.7 18.125 46.9 22.875 46C22.7915 44.6577 22.9872 43.3127 23.45 42.05C18.3 40.75 10.95 37.05 10.95 24.55C10.9434 21.5891 11.8132 18.6924 13.45 16.225C13.754 15.7695 13.8704 15.2142 13.775 14.675C13.2698 11.9764 13.5563 9.18934 14.6 6.65C14.7418 6.31141 14.9564 6.00821 15.2286 5.76192C15.5008 5.51564 15.8239 5.33233 16.175 5.225C17.025 4.975 20.075 4.475 25.85 8.225C30.5249 7.10001 35.4 7.10001 40.075 8.225C45.85 4.475 48.9 4.95 49.725 5.225C50.076 5.33233 50.3991 5.51564 50.6713 5.76192C50.9435 6.00821 51.1582 6.31141 51.3 6.65C52.3457 9.19758 52.6322 11.9933 52.125 14.7C52.0738 14.9439 52.0718 15.1955 52.119 15.4402C52.1662 15.6849 52.2617 15.9177 52.4 16.125C54.0414 18.5995 54.9115 21.5056 54.9 24.475C54.9 37.15 47.6 40.825 42.4 41.975C42.858 43.3165 43.045 44.7356 42.95 46.15V52.5C42.9511 53.1379 42.7084 53.752 42.2715 54.2168C41.8347 54.6815 41.2367 54.9617 40.6 55V55Z" fill="white"/>
</svg>
