<svg width="95" height="116" viewBox="0 0 95 116" fill="none" xmlns="http://www.w3.org/2000/svg">
<path d="M54.3729 12.8403C54.3729 13.5411 53.8054 14.1085 53.1043 14.1085H42.5211C41.82 14.1085 41.2524 13.5411 41.2524 12.8403V2.26076C41.2524 1.55991 41.82 0.992554 42.5211 0.992554H53.1043C53.8054 0.992554 54.3729 1.55991 54.3729 2.26076V12.8403Z" fill="black"/>
<path d="M70.1639 12.8403C70.1639 13.5411 69.5964 14.1085 68.8953 14.1085H58.3121C57.611 14.1085 57.0435 13.5411 57.0435 12.8403V2.26076C57.0435 1.55991 57.611 0.992554 58.3121 0.992554H68.8953C69.5964 0.992554 70.1639 1.55991 70.1639 2.26076V12.8403Z" fill="black"/>
<path d="M70.1639 44.3785C70.1639 45.0794 69.5964 45.6467 68.8953 45.6467H58.3121C57.611 45.6467 57.0435 45.0794 57.0435 44.3785V33.799C57.0435 33.0981 57.611 32.5308 58.3121 32.5308H68.8953C69.5964 32.5308 70.1639 33.0981 70.1639 33.799V44.3785Z" fill="black"/>
<path d="M38.6151 28.5927C38.6151 29.2935 38.0476 29.8609 37.3465 29.8609H26.7633C26.0622 29.8609 25.4946 29.2935 25.4946 28.5927V18.0132C25.4946 17.3123 26.0622 16.745 26.7633 16.745H37.3465C38.0476 16.745 38.6151 17.3123 38.6151 18.0132V28.5927Z" fill="black"/>
<path d="M54.3729 28.5927C54.3729 29.2935 53.8054 29.8609 53.1043 29.8609H42.5211C41.82 29.8609 41.2524 29.2935 41.2524 28.5927V18.0132C41.2524 17.3123 41.82 16.745 42.5211 16.745H53.1043C53.8054 16.745 54.3729 17.3123 54.3729 18.0132V28.5927Z" fill="black"/>
<path d="M38.6151 44.3785C38.6151 45.0794 38.0476 45.6467 37.3465 45.6467H26.7633C26.0622 45.6467 25.4946 45.0794 25.4946 44.3785V33.799C25.4946 33.0981 26.0622 32.5308 26.7633 32.5308H37.3465C38.0476 32.5308 38.6151 33.0981 38.6151 33.799V44.3785Z" fill="black"/>
<path d="M54.3729 44.3785C54.3729 45.0794 53.8054 45.6467 53.1043 45.6467H42.5211C41.82 45.6467 41.2524 45.0794 41.2524 44.3785V33.799C41.2524 33.0981 41.82 32.5308 42.5211 32.5308H53.1043C53.8054 32.5308 54.3729 33.0981 54.3729 33.799V44.3785Z" fill="black"/>
<path d="M38.6151 60.1643C38.6151 60.8652 38.0476 61.4325 37.3465 61.4325H26.7633C26.0622 61.4325 25.4946 60.8652 25.4946 60.1643V49.5849C25.4946 48.884 26.0622 48.3167 26.7633 48.3167H37.3465C38.0476 48.3167 38.6151 48.884 38.6151 49.5849V60.1643Z" fill="black"/>
<path d="M54.3729 60.1643C54.3729 60.8652 53.8054 61.4325 53.1043 61.4325H42.5211C41.82 61.4325 41.2524 60.8652 41.2524 60.1643V49.5849C41.2524 48.884 41.82 48.3167 42.5211 48.3167H53.1043C53.8054 48.3167 54.3729 48.884 54.3729 49.5849V60.1643Z" fill="black"/>
<path d="M39.2831 7.56719C39.2831 11.5721 36.0447 14.8093 32.0384 14.8093C28.0322 14.8093 24.8271 11.5721 24.8271 7.56719C24.8271 3.56233 28.0655 0.325073 32.0384 0.325073C36.0447 0.325073 39.2831 3.56233 39.2831 7.56719Z" fill="black"/>
<path d="M11.6064 115.265L8.26786 106.521H8.20109C8.26786 107.221 8.30125 108.022 8.30125 108.99V115.265H7.23291V105.386H8.96895L12.1072 113.529H12.174L15.3456 105.386H17.0482V115.265H15.9131V108.923C15.9131 108.189 15.9465 107.388 16.0133 106.554H15.9465L12.5746 115.298H11.6398L11.6064 115.265ZM24.126 115.265L23.8923 114.197H23.8255C23.4582 114.664 23.091 114.964 22.7238 115.131C22.3565 115.298 21.8891 115.365 21.355 115.365C20.6205 115.365 20.0529 115.164 19.6189 114.797C19.2183 114.43 18.9846 113.896 18.9846 113.195C18.9846 111.694 20.1865 110.926 22.5902 110.859L23.8589 110.826V110.359C23.8589 109.791 23.7253 109.357 23.4916 109.057C23.2579 108.79 22.8573 108.656 22.2898 108.656C21.6888 108.656 20.9877 108.857 20.1865 109.224L19.8526 108.356C20.2199 108.156 20.6205 107.989 21.0545 107.889C21.4885 107.789 21.9225 107.722 22.3565 107.722C23.2246 107.722 23.8923 107.922 24.3263 108.323C24.7603 108.723 24.9606 109.357 24.9606 110.192V115.231H24.126V115.265ZM21.5887 114.464C22.2898 114.464 22.8239 114.263 23.2246 113.896C23.6252 113.529 23.8255 112.995 23.8255 112.294V111.627L22.6904 111.66C21.789 111.694 21.1547 111.827 20.754 112.061C20.3534 112.294 20.1531 112.695 20.1531 113.195C20.1531 113.596 20.2866 113.896 20.5203 114.13C20.754 114.33 21.1213 114.43 21.5553 114.43L21.5887 114.464ZM29.6679 114.464C29.8683 114.464 30.0686 114.464 30.2355 114.43C30.4358 114.397 30.5694 114.363 30.6695 114.33V115.198C30.536 115.265 30.369 115.298 30.1353 115.331C29.9016 115.365 29.7013 115.398 29.501 115.398C28.0654 115.398 27.3643 114.63 27.3643 113.129V108.723H26.296V108.189L27.3643 107.722L27.8317 106.153H28.4661V107.856H30.6027V108.723H28.4661V113.062C28.4661 113.496 28.5662 113.863 28.7999 114.096C29.0002 114.33 29.3007 114.464 29.6679 114.464ZM38.5485 111.56C38.5485 112.761 38.248 113.696 37.6471 114.397C37.0461 115.064 36.2115 115.398 35.1098 115.398C34.4421 115.398 33.8745 115.231 33.3403 114.931C32.8396 114.63 32.4389 114.163 32.1385 113.596C31.8714 113.028 31.7045 112.328 31.7045 111.56C31.7045 110.359 32.0049 109.424 32.6059 108.757C33.2068 108.089 34.0414 107.755 35.1098 107.755C36.1447 107.755 36.9794 108.089 37.5803 108.79C38.1812 109.491 38.4817 110.425 38.4817 111.593L38.5485 111.56ZM32.9063 111.56C32.9063 112.494 33.1066 113.229 33.4739 113.729C33.8411 114.23 34.4087 114.464 35.1432 114.464C35.8776 114.464 36.4452 114.23 36.8124 113.729C37.1797 113.229 37.38 112.528 37.38 111.56C37.38 110.626 37.1797 109.891 36.8124 109.424C36.4452 108.923 35.8776 108.69 35.1098 108.69C34.3753 108.69 33.8077 108.923 33.4405 109.424C33.0733 109.891 32.873 110.626 32.873 111.593L32.9063 111.56ZM48.6309 110.092H52.0028V114.897C51.4687 115.064 50.9345 115.198 50.4003 115.265C49.8662 115.365 49.2318 115.398 48.5307 115.398C47.0284 115.398 45.8599 114.964 45.0253 114.063C44.1906 113.162 43.79 111.927 43.79 110.325C43.79 109.291 43.9903 108.389 44.4243 107.622C44.825 106.854 45.4259 106.254 46.1938 105.853C46.9616 105.453 47.863 105.252 48.9314 105.252C49.9997 105.252 50.9679 105.453 51.8693 105.82L51.4353 106.821C50.5339 106.454 49.6992 106.254 48.8646 106.254C47.6627 106.254 46.7279 106.621 46.0602 107.322C45.3925 108.022 45.0586 109.024 45.0586 110.292C45.0586 111.627 45.3925 112.628 46.0268 113.329C46.6945 114.03 47.6293 114.363 48.898 114.363C49.5657 114.363 50.2668 114.297 50.9011 114.13V111.093H48.6977V110.058L48.6309 110.092ZM57.5782 107.722C57.9121 107.722 58.2125 107.755 58.4796 107.789L58.3127 108.823C58.0122 108.757 57.7451 108.723 57.5114 108.723C56.9105 108.723 56.4097 108.957 55.9757 109.457C55.5417 109.958 55.3414 110.559 55.3414 111.26V115.231H54.2063V107.822H55.1411L55.2746 109.19H55.3414C55.6085 108.723 55.9423 108.323 56.3429 108.089C56.7436 107.822 57.1442 107.689 57.6116 107.689L57.5782 107.722ZM65.958 111.56C65.958 112.761 65.6575 113.696 65.0565 114.397C64.4556 115.064 63.621 115.398 62.5192 115.398C61.8515 115.398 61.284 115.231 60.7498 114.931C60.249 114.63 59.8484 114.163 59.5479 113.596C59.2809 113.028 59.1139 112.328 59.1139 111.56C59.1139 110.359 59.4144 109.424 60.0153 108.757C60.6163 108.089 61.4509 107.755 62.5192 107.755C63.5542 107.755 64.3888 108.089 64.9898 108.79C65.5907 109.491 65.8912 110.425 65.8912 111.593L65.958 111.56ZM60.3158 111.56C60.3158 112.494 60.5161 113.229 60.8834 113.729C61.2506 114.23 61.8182 114.464 62.5526 114.464C63.2871 114.464 63.8547 114.23 64.2219 113.729C64.5891 113.229 64.7895 112.528 64.7895 111.56C64.7895 110.626 64.5891 109.891 64.2219 109.424C63.8547 108.923 63.2871 108.69 62.5192 108.69C61.7848 108.69 61.2172 108.923 60.85 109.424C60.4827 109.891 60.2824 110.626 60.2824 111.593L60.3158 111.56ZM72.7018 113.262C72.7018 113.963 72.4347 114.497 71.934 114.864C71.4332 115.231 70.6987 115.431 69.7639 115.431C68.7957 115.431 68.0279 115.265 67.4603 114.964V113.93C67.8275 114.096 68.1948 114.263 68.5954 114.363C68.996 114.464 69.3967 114.53 69.7639 114.53C70.3648 114.53 70.7988 114.43 71.1327 114.263C71.4332 114.063 71.6001 113.796 71.6001 113.396C71.6001 113.095 71.4666 112.862 71.2329 112.661C70.9658 112.461 70.4984 112.227 69.7639 111.927C69.0628 111.66 68.5954 111.46 68.2949 111.26C67.9945 111.059 67.7942 110.859 67.6606 110.592C67.5271 110.359 67.4603 110.058 67.4603 109.724C67.4603 109.124 67.694 108.656 68.1948 108.289C68.6956 107.956 69.3633 107.755 70.2313 107.755C71.0325 107.755 71.8004 107.922 72.5683 108.256L72.1676 109.157C71.4332 108.857 70.7321 108.69 70.1311 108.69C69.597 108.69 69.1963 108.757 68.9293 108.923C68.6622 109.09 68.5286 109.324 68.5286 109.624C68.5286 109.825 68.5954 109.991 68.6956 110.125C68.7957 110.258 68.9626 110.392 69.1963 110.525C69.43 110.659 69.8641 110.826 70.4984 111.059C71.3664 111.393 71.9673 111.694 72.2678 112.027C72.5683 112.361 72.7352 112.761 72.7352 113.262H72.7018ZM79.3121 113.262C79.3121 113.963 79.0451 114.497 78.5443 114.864C78.0435 115.231 77.309 115.431 76.3742 115.431C75.406 115.431 74.6382 115.265 74.0706 114.964V113.93C74.4379 114.096 74.8051 114.263 75.2057 114.363C75.6064 114.464 76.007 114.53 76.3742 114.53C76.9752 114.53 77.4092 114.43 77.743 114.263C78.0435 114.063 78.2104 113.796 78.2104 113.396C78.2104 113.095 78.0769 112.862 77.8432 112.661C77.5761 112.461 77.1087 112.227 76.3742 111.927C75.6731 111.66 75.2057 111.46 74.9053 111.26C74.6048 111.059 74.4045 110.859 74.2709 110.592C74.1374 110.359 74.0706 110.058 74.0706 109.724C74.0706 109.124 74.3043 108.656 74.8051 108.289C75.3059 107.956 75.9736 107.755 76.8416 107.755C77.6429 107.755 78.4107 107.922 79.1786 108.256L78.778 109.157C78.0435 108.857 77.3424 108.69 76.7415 108.69C76.2073 108.69 75.8067 108.757 75.5396 108.923C75.2725 109.09 75.139 109.324 75.139 109.624C75.139 109.825 75.2057 109.991 75.3059 110.125C75.406 110.258 75.573 110.392 75.8067 110.525C76.0404 110.659 76.4744 110.826 77.1087 111.059C77.9767 111.393 78.5777 111.694 78.8781 112.027C79.1786 112.361 79.3455 112.761 79.3455 113.262H79.3121ZM87.525 111.56C87.525 112.761 87.2245 113.696 86.6236 114.397C86.0226 115.064 85.188 115.398 84.0863 115.398C83.4186 115.398 82.851 115.231 82.3168 114.931C81.816 114.63 81.4154 114.163 81.115 113.596C80.8479 113.028 80.6809 112.328 80.6809 111.56C80.6809 110.359 80.9814 109.424 81.5824 108.757C82.1833 108.089 83.0179 107.755 84.0863 107.755C85.1212 107.755 85.9558 108.089 86.5568 108.79C87.1577 109.491 87.4582 110.425 87.4582 111.593L87.525 111.56ZM81.8828 111.56C81.8828 112.494 82.0831 113.229 82.4504 113.729C82.8176 114.23 83.3852 114.464 84.1197 114.464C84.8541 114.464 85.4217 114.23 85.7889 113.729C86.1562 113.229 86.3565 112.528 86.3565 111.56C86.3565 110.626 86.1562 109.891 85.7889 109.424C85.4217 108.923 84.8541 108.69 84.0863 108.69C83.3518 108.69 82.7842 108.923 82.417 109.424C82.0498 109.891 81.8494 110.626 81.8494 111.593L81.8828 111.56Z" fill="black"/>
<path d="M0.222168 83.6929V70.6104H2.99316V83.6929H0.222168Z" fill="black"/>
<path d="M17.9165 83.6932H14.3776L8.66871 73.8145H8.60194C8.70209 75.5499 8.76886 76.8182 8.76886 77.5524V83.6932H6.29834V70.6106H9.80381L15.4793 80.3891H15.5461C15.446 78.6871 15.4126 77.4856 15.4126 76.7848V70.6106H17.9165V83.6932ZM28.9671 80.0554C28.9671 81.2235 28.5331 82.158 27.6984 82.8588C26.8638 83.5263 25.6619 83.8934 24.1596 83.8934C22.7574 83.8934 21.5221 83.6264 20.4538 83.0924V80.5226C21.3218 80.9231 22.0897 81.1901 22.6906 81.357C23.2915 81.5239 23.8591 81.5906 24.3599 81.5906C24.9608 81.5906 25.4282 81.4905 25.7621 81.2235C26.0959 80.9899 26.2629 80.6561 26.2629 80.1889C26.2629 79.9219 26.1961 79.7217 26.0292 79.5214C25.8956 79.3212 25.6619 79.1209 25.3948 78.9541C25.1277 78.7872 24.5602 78.4868 23.6922 78.053C22.8909 77.6859 22.29 77.3188 21.8894 76.985C21.4887 76.6513 21.1549 76.2508 20.9212 75.7836C20.6875 75.3163 20.5539 74.7824 20.5539 74.1816C20.5539 73.0135 20.9546 72.1124 21.7224 71.445C22.5237 70.7775 23.592 70.4438 24.9942 70.4438C25.6619 70.4438 26.3296 70.5105 26.9306 70.6774C27.5649 70.8442 28.1992 71.0779 28.8669 71.3448L27.9655 73.5141C27.2644 73.2138 26.6969 73.0135 26.2295 72.9134C25.7621 72.8133 25.3281 72.7465 24.894 72.7465C24.3599 72.7465 23.9593 72.88 23.6922 73.1137C23.4251 73.3473 23.2582 73.681 23.2582 74.0815C23.2582 74.3151 23.3249 74.5487 23.4251 74.7156C23.5252 74.8825 23.7256 75.0827 23.9593 75.2496C24.193 75.4165 24.7939 75.7168 25.7287 76.1507C26.9639 76.7514 27.7986 77.3188 28.2326 77.9195C28.7 78.5202 28.9003 79.2211 28.9003 80.0888L28.9671 80.0554Z" fill="black"/>
<path d="M36.4116 83.6929H33.6406V72.9465H30.0684V70.6437H39.9505V72.9465H36.3782V83.6929H36.4116ZM42.0204 83.6929V70.6104H44.7913V83.6929H42.0204ZM53.1711 83.6929H50.4001V72.9465H46.8279V70.6437H56.71V72.9465H53.1377V83.6929H53.1711Z" fill="black"/>
<path d="M69.3634 70.6104V79.054C69.3634 80.0218 69.1631 80.8561 68.7291 81.5904C68.2951 82.3246 67.6607 82.8919 66.8595 83.2591C66.0582 83.6595 65.0901 83.8264 63.955 83.8264C62.2857 83.8264 60.9503 83.3925 60.0155 82.5248C59.0807 81.6571 58.6133 80.489 58.6133 78.9872V70.577H61.3843V78.5867C61.3843 79.5879 61.5846 80.3222 61.9852 80.7894C62.3858 81.2566 63.0535 81.4902 63.9883 81.4902C64.8897 81.4902 65.5575 81.2566 65.9581 80.7894C66.3587 80.3222 66.559 79.5879 66.559 78.5533V70.577H69.33L69.3634 70.6104Z" fill="black"/>
<path d="M77.7436 83.6929H74.9726V72.9465H71.4004V70.6437H81.2825V72.9465H77.7102V83.6929H77.7436ZM94.837 77.1516C94.837 79.3209 94.3028 80.9896 93.2345 82.1243C92.1661 83.2924 90.6304 83.8598 88.6273 83.8598C86.6242 83.8598 85.0884 83.2924 84.0201 82.1243C82.9518 80.9562 82.4176 79.2876 82.4176 77.1183C82.4176 74.949 82.9518 73.2803 84.0201 72.1456C85.0884 71.0109 86.6575 70.4101 88.6607 70.4101C90.6638 70.4101 92.1995 70.9775 93.2679 72.1456C94.3362 73.3136 94.8704 74.949 94.8704 77.1516H94.837ZM85.2887 77.1516C85.2887 78.6201 85.5558 79.7214 86.1234 80.4556C86.6909 81.1899 87.4922 81.557 88.6273 81.557C90.8307 81.557 91.9658 80.0885 91.9658 77.1516C91.9658 74.2147 90.8641 72.7463 88.6607 72.7463C87.559 72.7463 86.7243 73.1134 86.1568 73.8476C85.5892 74.5819 85.3221 75.6832 85.3221 77.1516H85.2887Z" fill="black"/>
<path d="M12.074 99.4119H9.33643V86.3294H16.8482V88.5988H12.074V91.9696H16.5143V94.239H12.074V99.4119Z" fill="black"/>
<path d="M26.9978 99.412H19.4526V86.3294H26.9978V88.5988H22.2236V91.469H26.6639V93.7384H22.2236V97.1092H26.9978V99.412ZM40.619 92.7372C40.619 94.8731 40.0181 96.5418 38.7828 97.6765C37.5476 98.8112 35.7781 99.3786 33.4745 99.3786H29.7687V86.296H33.8752C36.0118 86.296 37.6811 86.8634 38.8496 87.9981C40.0181 89.1328 40.619 90.7014 40.619 92.7038V92.7372ZM37.7479 92.8039C37.7479 90.0005 36.5126 88.5988 34.0087 88.5988H32.5397V97.1092H33.7416C36.4125 97.1092 37.7479 95.6741 37.7479 92.8039ZM50.9018 99.3786H43.3566V86.296H50.9018V88.5655H46.1276V91.4356H50.5679V93.705H46.1276V97.0758H50.9018V99.3786ZM56.4437 92.1031H57.3451C58.2132 92.1031 58.8809 91.9696 59.2815 91.6692C59.7155 91.3689 59.9158 90.935 59.9158 90.3009C59.9158 89.6668 59.7155 89.2329 59.2815 88.9659C58.8475 88.699 58.1798 88.5655 57.3118 88.5655H56.4771V92.1031H56.4437ZM56.4437 94.3391V99.3452H53.6727V86.2627H57.4787C59.2481 86.2627 60.5835 86.5964 61.4182 87.2305C62.2862 87.8646 62.6868 88.8658 62.6868 90.1674C62.6868 90.935 62.4865 91.6359 62.0525 92.2032C61.6185 92.8039 61.0175 93.2712 60.2497 93.6049C62.2194 96.5418 63.5215 98.4441 64.089 99.3118H61.0175L57.8793 94.3058H56.4104L56.4437 94.3391Z" fill="black"/>
<path d="M73.7036 99.4119L72.7688 96.3082H67.9947L67.0599 99.4119H64.0552L68.6624 86.296H72.0677L76.7083 99.4119H73.7036ZM72.1011 93.972C71.2331 91.1686 70.7323 89.5667 70.6321 89.1995C70.532 88.8324 70.4318 88.5321 70.3984 88.3318C70.1981 89.0994 69.6305 90.9684 68.6958 94.0054H72.1011V93.972Z" fill="black"/>
<path d="M78.4438 99.4119V86.3294H81.2148V97.1091H86.5231V99.4119H78.4438Z" fill="black"/>
</svg>
