<svg width="47" height="56" viewBox="0 0 47 56" fill="none" xmlns="http://www.w3.org/2000/svg">
<path d="M38.5055 14.4161L40.1158 12.2825C41.1436 10.9212 40.1705 8.96409 38.4631 8.96409H29.1099V6.43776C29.11 3.32596 26.5783 0.79425 23.4664 0.79425C20.3545 0.79425 17.8228 3.32596 17.8228 6.43786V8.96419H8.46967C6.76407 8.96419 5.78815 10.92 6.81691 12.2826L8.42727 14.4162C3.11492 18.8557 0 25.4429 0 32.4306C0 45.37 10.527 55.8969 23.4663 55.8969C36.4057 55.8969 46.9326 45.37 46.9326 32.4306C46.9327 25.4427 43.8179 18.8556 38.5055 14.4161ZM19.8937 13.1057V13.1058C21.0373 13.1058 21.9644 12.1787 21.9644 11.0351V6.43786C21.9644 5.60971 22.6383 4.93588 23.4664 4.93588C24.2946 4.93588 24.9684 5.60971 24.9684 6.43786V11.0351C24.9684 12.1787 25.8956 13.1058 27.0392 13.1058H34.3055C33.4018 14.3031 33.7214 13.2813 32.6401 21.6219C27.7518 18.5864 27.8245 18.5106 27.0379 18.5106C26.1636 18.5106 25.3836 19.0597 25.0886 19.8826L23.4661 24.4082L21.8428 19.8823C21.6318 19.2935 21.1658 18.8319 20.575 18.6259C19.3348 18.1935 18.937 18.7377 14.2927 21.6218C13.2111 13.2782 13.5296 14.3014 12.6272 13.1057H19.8937ZM23.4664 51.7553C12.8106 51.7553 4.14174 43.0862 4.14174 32.4306C4.14174 27.2865 6.19195 22.4057 9.75275 18.816L10.5993 25.3442C10.7927 26.8369 12.4676 27.6303 13.7453 26.8372L18.8097 23.6923L21.5175 31.2425C22.1709 33.0645 24.7612 33.0688 25.416 31.2421L28.1228 23.6917L33.1879 26.8369C34.4664 27.6309 36.1407 26.8354 36.3339 25.344L37.1804 18.8157C40.7412 22.4056 42.7914 27.2863 42.7914 32.4304C42.7912 43.0862 34.1221 51.7553 23.4664 51.7553Z" fill="white"/>
<path d="M17.4698 44.0592C15.4923 43.013 13.8096 41.4612 12.6042 39.5714C11.989 38.6072 10.709 38.324 9.74458 38.9392C8.78039 39.5543 8.49744 40.8346 9.1124 41.7987C10.703 44.2918 12.9231 46.3394 15.533 47.7201C16.5438 48.2548 17.797 47.8692 18.3318 46.858C18.8667 45.8472 18.4806 44.5941 17.4698 44.0592Z" fill="white"/>
</svg>
