<svg width="311" height="48" viewBox="0 0 311 48" fill="none" xmlns="http://www.w3.org/2000/svg">
<rect width="13.9818" height="6.4636" rx="3.2318" transform="matrix(0.639592 0.768714 0.768714 -0.639592 28.0054 36.4791)" fill="#5ACC65"/>
<rect width="11.2812" height="6.4636" rx="3.2318" transform="matrix(0.639592 0.768714 0.768714 -0.639592 23.1104 30.3041)" fill="#4A8C50"/>
<path d="M43.6332 22.6241C43.6332 34.623 33.9061 44.3501 21.9072 44.3501C9.90822 44.3501 0.181152 34.623 0.181152 22.6241C0.181152 10.6251 9.90822 0.898071 21.9072 0.898071C33.9061 0.898071 43.6332 10.6251 43.6332 22.6241ZM8.30798 22.6241C8.30798 30.1347 14.3965 36.2233 21.9072 36.2233C29.4178 36.2233 35.5064 30.1347 35.5064 22.6241C35.5064 15.1135 29.4178 9.0249 21.9072 9.0249C14.3965 9.0249 8.30798 15.1135 8.30798 22.6241Z" fill="#5ACC65"/>
<path d="M66.3063 35.3578H54.4016L52.4932 40.9921H44.3599L55.9011 9.09478H64.8977L76.4389 40.9921H68.2147L66.3063 35.3578ZM64.3071 29.36L60.354 17.6825L56.4463 29.36H64.3071Z" fill="white"/>
<path d="M78.4066 28.315C78.4066 25.6796 78.9367 23.3774 79.9969 21.4084C81.0874 19.4394 82.5869 17.9249 84.4953 16.8646C86.434 15.8044 88.6453 15.2743 91.1292 15.2743C94.3098 15.2743 96.9604 16.1073 99.0808 17.7734C101.232 19.4394 102.64 21.7871 103.307 24.8163H95.0368C94.3401 22.8776 92.9921 21.9082 90.9929 21.9082C89.5692 21.9082 88.4332 22.4686 87.585 23.5894C86.7369 24.6799 86.3128 26.2551 86.3128 28.315C86.3128 30.3748 86.7369 31.9651 87.585 33.0859C88.4332 34.1764 89.5692 34.7217 90.9929 34.7217C92.9921 34.7217 94.3401 33.7523 95.0368 31.8137H103.307C102.64 34.7823 101.232 37.1147 99.0808 38.8111C96.9301 40.5074 94.2795 41.3556 91.1292 41.3556C88.6453 41.3556 86.434 40.8255 84.4953 39.7653C82.5869 38.7051 81.0874 37.1905 79.9969 35.2215C78.9367 33.2525 78.4066 30.9504 78.4066 28.315Z" fill="white"/>
<path d="M105.918 28.2695C105.918 25.6644 106.402 23.3774 107.372 21.4084C108.371 19.4394 109.719 17.9249 111.416 16.8646C113.112 15.8044 115.005 15.2743 117.095 15.2743C118.883 15.2743 120.443 15.6378 121.776 16.3648C123.139 17.0918 124.184 18.046 124.911 19.2274V15.6378H132.681V40.9921H124.911V37.4025C124.153 38.5839 123.093 39.5381 121.73 40.2651C120.397 40.9921 118.837 41.3556 117.05 41.3556C114.99 41.3556 113.112 40.8255 111.416 39.7653C109.719 38.6748 108.371 37.145 107.372 35.1761C106.402 33.1768 105.918 30.8746 105.918 28.2695ZM124.911 28.315C124.911 26.3763 124.366 24.8465 123.275 23.7257C122.215 22.6049 120.912 22.0445 119.367 22.0445C117.822 22.0445 116.505 22.6049 115.414 23.7257C114.354 24.8163 113.824 26.3308 113.824 28.2695C113.824 30.2082 114.354 31.7531 115.414 32.9042C116.505 34.025 117.822 34.5854 119.367 34.5854C120.912 34.5854 122.215 34.025 123.275 32.9042C124.366 31.7834 124.911 30.2536 124.911 28.315Z" fill="white"/>
<path d="M136.757 28.2695C136.757 25.6644 137.242 23.3774 138.211 21.4084C139.211 19.4394 140.559 17.9249 142.255 16.8646C143.951 15.8044 145.844 15.2743 147.935 15.2743C149.601 15.2743 151.115 15.6227 152.478 16.3194C153.872 17.0161 154.962 17.9551 155.75 19.1365V7.36814H163.52V40.9921H155.75V37.3571C155.023 38.5688 153.978 39.5381 152.615 40.2651C151.282 40.9921 149.722 41.3556 147.935 41.3556C145.844 41.3556 143.951 40.8255 142.255 39.7653C140.559 38.6748 139.211 37.145 138.211 35.1761C137.242 33.1768 136.757 30.8746 136.757 28.2695ZM155.75 28.315C155.75 26.3763 155.205 24.8465 154.114 23.7257C153.054 22.6049 151.751 22.0445 150.206 22.0445C148.662 22.0445 147.344 22.6049 146.253 23.7257C145.193 24.8163 144.663 26.3308 144.663 28.2695C144.663 30.2082 145.193 31.7531 146.253 32.9042C147.344 34.025 148.662 34.5854 150.206 34.5854C151.751 34.5854 153.054 34.025 154.114 32.9042C155.205 31.7834 155.75 30.2536 155.75 28.315Z" fill="white"/>
<path d="M193.041 27.906C193.041 28.633 192.996 29.3903 192.905 30.1779H175.32C175.442 31.7531 175.941 32.9648 176.82 33.8129C177.729 34.6308 178.834 35.0398 180.137 35.0398C182.076 35.0398 183.424 34.2219 184.181 32.5861H192.45C192.026 34.2522 191.254 35.7516 190.133 37.0845C189.043 38.4173 187.664 39.4624 185.998 40.2197C184.332 40.977 182.469 41.3556 180.409 41.3556C177.926 41.3556 175.714 40.8255 173.776 39.7653C171.837 38.7051 170.322 37.1905 169.232 35.2215C168.141 33.2525 167.596 30.9504 167.596 28.315C167.596 25.6796 168.126 23.3774 169.186 21.4084C170.277 19.4394 171.791 17.9249 173.73 16.8646C175.669 15.8044 177.895 15.2743 180.409 15.2743C182.863 15.2743 185.044 15.7893 186.953 16.8192C188.861 17.8491 190.345 19.3183 191.405 21.2267C192.496 23.1351 193.041 25.3615 193.041 27.906ZM185.09 25.8613C185.09 24.5285 184.635 23.4683 183.726 22.6807C182.818 21.8931 181.682 21.4993 180.319 21.4993C179.016 21.4993 177.91 21.8779 177.002 22.6352C176.123 23.3925 175.578 24.4679 175.366 25.8613H185.09Z" fill="white"/>
<path d="M229.492 15.3652C232.642 15.3652 235.141 16.3194 236.989 18.2278C238.867 20.1362 239.806 22.7867 239.806 26.1794V40.9921H232.082V27.2245C232.082 25.5887 231.643 24.3316 230.764 23.4531C229.916 22.5444 228.735 22.09 227.22 22.09C225.705 22.09 224.509 22.5444 223.63 23.4531C222.782 24.3316 222.358 25.5887 222.358 27.2245V40.9921H214.634V27.2245C214.634 25.5887 214.194 24.3316 213.316 23.4531C212.468 22.5444 211.286 22.09 209.772 22.09C208.257 22.09 207.061 22.5444 206.182 23.4531C205.334 24.3316 204.91 25.5887 204.91 27.2245V40.9921H197.14V15.6378H204.91V18.8185C205.698 17.7582 206.728 16.9252 208 16.3194C209.272 15.6833 210.711 15.3652 212.316 15.3652C214.225 15.3652 215.921 15.7741 217.405 16.592C218.92 17.4099 220.101 18.5761 220.95 20.0907C221.828 18.6973 223.025 17.5614 224.539 16.6829C226.054 15.8044 227.705 15.3652 229.492 15.3652Z" fill="white"/>
<path d="M249.148 13.0024C247.785 13.0024 246.664 12.6086 245.786 11.821C244.937 11.0032 244.513 10.0035 244.513 8.82215C244.513 7.61048 244.937 6.61085 245.786 5.82326C246.664 5.00538 247.785 4.59644 249.148 4.59644C250.481 4.59644 251.571 5.00538 252.419 5.82326C253.298 6.61085 253.737 7.61048 253.737 8.82215C253.737 10.0035 253.298 11.0032 252.419 11.821C251.571 12.6086 250.481 13.0024 249.148 13.0024ZM253.01 15.6378V40.9921H245.24V15.6378H253.01Z" fill="white"/>
<path d="M257.096 28.315C257.096 25.6796 257.626 23.3774 258.686 21.4084C259.777 19.4394 261.276 17.9249 263.185 16.8646C265.123 15.8044 267.335 15.2743 269.819 15.2743C272.999 15.2743 275.65 16.1073 277.77 17.7734C279.921 19.4394 281.329 21.7871 281.996 24.8163H273.726C273.03 22.8776 271.682 21.9082 269.682 21.9082C268.259 21.9082 267.123 22.4686 266.274 23.5894C265.426 24.6799 265.002 26.2551 265.002 28.315C265.002 30.3748 265.426 31.9651 266.274 33.0859C267.123 34.1764 268.259 34.7217 269.682 34.7217C271.682 34.7217 273.03 33.7523 273.726 31.8137H281.996C281.329 34.7823 279.921 37.1147 277.77 38.8111C275.619 40.5074 272.969 41.3556 269.819 41.3556C267.335 41.3556 265.123 40.8255 263.185 39.7653C261.276 38.7051 259.777 37.1905 258.686 35.2215C257.626 33.2525 257.096 30.9504 257.096 28.315Z" fill="white"/>
<path d="M297.693 41.3556C295.209 41.3556 292.968 40.8255 290.968 39.7653C288.999 38.7051 287.439 37.1905 286.288 35.2215C285.168 33.2525 284.607 30.9504 284.607 28.315C284.607 25.7099 285.183 23.4228 286.334 21.4539C287.485 19.4546 289.06 17.9249 291.059 16.8646C293.059 15.8044 295.3 15.2743 297.784 15.2743C300.268 15.2743 302.51 15.8044 304.509 16.8646C306.508 17.9249 308.083 19.4546 309.234 21.4539C310.386 23.4228 310.961 25.7099 310.961 28.315C310.961 30.9201 310.37 33.2222 309.189 35.2215C308.038 37.1905 306.448 38.7051 304.418 39.7653C302.419 40.8255 300.177 41.3556 297.693 41.3556ZM297.693 34.6308C299.178 34.6308 300.435 34.0856 301.465 32.9951C302.525 31.9045 303.055 30.3445 303.055 28.315C303.055 26.2854 302.54 24.7254 301.51 23.6349C300.51 22.5444 299.268 21.9991 297.784 21.9991C296.27 21.9991 295.012 22.5444 294.013 23.6349C293.013 24.6951 292.513 26.2551 292.513 28.315C292.513 30.3445 292.998 31.9045 293.967 32.9951C294.967 34.0856 296.209 34.6308 297.693 34.6308Z" fill="white"/>
</svg>
