<svg width="149" height="158" viewBox="0 0 149 158" fill="none" xmlns="http://www.w3.org/2000/svg">
<rect width="47.5137" height="21.9649" rx="10" transform="matrix(0.639592 0.768714 0.768714 -0.639592 95.1353 121.041)" fill="#5ACC65"/>
<rect width="38.3363" height="21.9649" rx="10" transform="matrix(0.639592 0.768714 0.768714 -0.639592 78.5005 100.056)" fill="#4A8C50"/>
<path d="M148.242 73.9576C148.242 114.733 115.187 147.788 74.412 147.788C33.6366 147.788 0.581543 114.733 0.581543 73.9576C0.581543 33.1822 33.6366 0.127197 74.412 0.127197C115.187 0.127197 148.242 33.1822 148.242 73.9576ZM28.1985 73.9576C28.1985 99.4806 48.889 120.171 74.412 120.171C99.9349 120.171 120.625 99.4806 120.625 73.9576C120.625 48.4347 99.9349 27.7442 74.412 27.7442C48.889 27.7442 28.1985 48.4347 28.1985 73.9576Z" fill="#5ACC65"/>
</svg>
