<svg width="51" height="51" viewBox="0 0 51 51" fill="none" xmlns="http://www.w3.org/2000/svg">
<g clip-path="url(#clip0)">
<path d="M43.2259 7.48613C38.5222 2.76078 32.2627 0.155349 25.5826 0.148865C11.8502 0.148865 0.667981 11.3515 0.656262 25.1231C0.649797 31.8014 3.23723 38.0818 7.94012 42.8088C12.6446 47.5329 18.8794 50.1477 25.5382 50.1477H25.5959V50.1452C39.2298 50.1452 50.5025 38.9401 50.5126 25.1693C50.5191 18.4914 47.928 12.2119 43.2259 7.48613ZM26.6902 38.357C26.4037 38.6471 26.0033 38.8133 25.5919 38.8133C25.1789 38.8125 24.7772 38.6455 24.4875 38.3513C24.1998 38.0652 24.0345 37.6632 24.0349 37.2494C24.0357 36.8368 24.203 36.4324 24.4928 36.1426C24.7813 35.8541 25.2064 35.6879 25.5959 35.6879C26.0061 35.6879 26.407 35.8549 26.6931 36.1442C26.9856 36.4401 27.1533 36.8449 27.1525 37.2518C27.1521 37.6603 26.9836 38.0627 26.6902 38.357ZM27.4402 28.7875C27.2624 28.8268 27.1351 28.9849 27.1347 29.1676L27.1327 31.0035C27.1319 31.8634 26.434 32.5646 25.5733 32.5646C24.7134 32.5637 24.0163 31.8614 24.0171 31.0006L24.0208 27.4582C24.0216 26.5987 24.7195 25.9304 25.5782 25.9304H25.585C28.564 25.9304 30.9898 23.4664 30.9931 20.4788C30.9943 19.0312 30.4338 17.6537 29.413 16.6264C28.3887 15.5999 27.0321 15.0268 25.5858 15.0252C22.6064 15.0252 20.1798 17.4523 20.1766 20.442C20.1758 21.3023 19.4771 22.0002 18.6168 22.0002C18.2006 22.0002 17.809 21.8356 17.5156 21.5398C17.221 21.2448 17.0602 20.8521 17.0606 20.4351C17.065 15.7247 20.889 11.8917 25.5919 11.8917C30.2928 11.8966 34.1127 15.7352 34.1082 20.4488C34.105 24.4176 31.3018 27.9247 27.4402 28.7875Z" fill="black"/>
</g>
<defs>
<clipPath id="clip0">
<rect width="49.8563" height="50" fill="white" transform="translate(0.65625 0.148071)"/>
</clipPath>
</defs>
</svg>
